999
DXF created from GearGenerator
0
SECTION
2
HEADER
9
$ACADVER
1
AC1006
9
$INSBASE
10
0.0
20
0.0
30
0.0
0
ENDSEC
0
SECTION
2
BLOCKS
0
ENDSEC
0
SECTION
2
TABLES
0
TABLE
2
LTYPE
0
LTYPE
72
65
2
CONTINOUS
3
______
73
0
40
0
0
LTYPE
72
65
2
DASHED
3
_ _ _ 
73
2
40
1
49
0.5
49
-0.5
0
LTYPE
72
65
2
DOTTED
3
. . . 
73
2
40
0.5
49
0
49
-0.5
0
ENDTAB
0
TABLE
2
LAYER
0
LAYER
2
gear
62
7
6
CONTINOUS
0
LAYER
2
gear_texts
62
7
6
CONTINOUS
0
LAYER
2
gear_guides
62
5
6
DOTTED
0
ENDTAB
0
ENDSEC
0
SECTION
2
ENTITIES
0
LWPOLYLINE
90
500
70
1
43
0
10
64.1667
20
0
10
78.3196
20
0.0001
10
78.415
20
0.0037
10
78.6053
20
0.0173
10
78.89
20
0.0475
10
79.2679
20
0.1009
10
79.7376
20
0.184
10
80.2975
20
0.3033
10
80.9455
20
0.4652
10
81.6791
20
0.6758
10
82.4957
20
0.9414
10
83.3922
20
1.268
10
84.3652
20
1.6614
10
85.411
20
2.1274
10
86.5257
20
2.6714
10
87.705
20
3.2987
10
88.9442
20
4.0145
10
90.2387
20
4.8237
10
91.5832
20
5.7309
10
92.9725
20
6.7406
10
94.4008
20
7.8569
10
95.8624
20
9.0837
10
97.3512
20
10.4246
10
98.8609
20
11.8829
10
99.1128
20
13.291
10
97.9329
20
20.2272
10
97.2296
20
21.4729
10
95.3226
20
22.35
10
93.4742
20
23.1232
10
91.6892
20
23.7977
10
89.9721
20
24.379
10
88.3272
20
24.8725
10
86.7583
20
25.2842
10
85.2691
20
25.6198
10
83.8628
20
25.8856
10
82.5425
20
26.0878
10
81.3106
20
26.2326
10
80.1695
20
26.3266
10
79.1212
20
26.3761
10
78.1672
20
26.3879
10
77.3087
20
26.3686
10
76.5466
20
26.3249
10
75.8816
20
26.2633
10
75.3138
20
26.1908
10
74.8429
20
26.1139
10
74.4686
20
26.0394
10
74.19
20
25.9738
10
74.0059
20
25.9236
10
73.9147
20
25.8955
10
60.5577
20
21.2161
10
51.9119
20
37.7162
10
63.3618
20
46.0352
10
63.4369
20
46.0942
10
63.5829
20
46.2171
10
63.7954
20
46.4088
10
64.0697
20
46.6741
10
64.4009
20
47.0175
10
64.7838
20
47.4431
10
65.2128
20
47.9549
10
65.6826
20
48.5565
10
66.1871
20
49.2514
10
66.7204
20
50.0425
10
67.2763
20
50.9327
10
67.8485
20
51.9244
10
68.4306
20
53.0197
10
69.0159
20
54.2204
10
69.5977
20
55.5279
10
70.1693
20
56.9434
10
70.7238
20
58.4677
10
71.2543
20
60.1011
10
71.7537
20
61.8438
10
72.215
20
63.6954
10
72.6313
20
65.6553
10
72.9956
20
67.7225
10
72.3717
20
69.0097
10
67.3402
20
73.9277
10
66.039
20
74.522
10
63.9807
20
74.1107
10
62.0308
20
73.6498
10
60.1902
20
73.1463
10
58.4594
20
72.6073
10
56.8385
20
72.0397
10
55.3273
20
71.4506
10
53.9252
20
70.8468
10
52.6312
20
70.2353
10
51.4442
20
69.6227
10
50.3625
20
69.0158
10
49.3842
20
68.4211
10
48.5069
20
67.845
10
47.7281
20
67.2938
10
47.0449
20
66.7736
10
46.4542
20
66.2902
10
45.9523
20
65.8496
10
45.5355
20
65.4571
10
45.1998
20
65.1182
10
44.9408
20
64.8379
10
44.754
20
64.621
10
44.6345
20
64.4723
10
44.5773
20
64.3959
10
36.5217
20
52.7591
10
19.8286
20
61.0261
10
24.202
20
74.4865
10
24.228
20
74.5782
10
24.2739
20
74.7635
10
24.3331
20
75.0435
10
24.3991
20
75.4194
10
24.4653
20
75.8918
10
24.5248
20
76.4612
10
24.5711
20
77.1275
10
24.5975
20
77.8903
10
24.5972
20
78.749
10
24.5636
20
79.7025
10
24.4901
20
80.7495
10
24.3702
20
81.8881
10
24.1973
20
83.1163
10
23.9651
20
84.4317
10
23.6672
20
85.8315
10
23.2977
20
87.3127
10
22.8503
20
88.8718
10
22.3194
20
90.505
10
21.6991
20
92.2084
10
20.984
20
93.9776
10
20.1688
20
95.8079
10
19.2484
20
97.6943
10
17.987
20
98.369
10
11.0257
20
99.3903
10
9.6237
20
99.1064
10
8.2002
20
97.5637
10
6.8937
20
96.0447
10
5.7006
20
94.5555
10
4.6171
20
93.1021
10
3.6394
20
91.6902
10
2.7631
20
90.3253
10
1.9837
20
89.0127
10
1.2963
20
87.7574
10
0.6961
20
86.5641
10
0.1777
20
85.4373
10
-0.2643
20
84.3811
10
-0.6354
20
83.3994
10
-0.9414
20
82.4957
10
-1.1884
20
81.6733
10
-1.3822
20
80.935
10
-1.5292
20
80.2835
10
-1.6357
20
79.721
10
-1.7081
20
79.2495
10
-1.7528
20
78.8705
10
-1.7765
20
78.5852
10
-1.7858
20
78.3947
10
-1.7872
20
78.2993
10
-1.4643
20
64.15
10
-19.8286
20
61.0261
10
-24.2022
20
74.4864
10
-24.2351
20
74.5759
10
-24.3069
20
74.7527
10
-24.4235
20
75.0141
10
-24.5911
20
75.357
10
-24.8153
20
75.7781
10
-25.1018
20
76.2737
10
-25.4559
20
76.84
10
-25.883
20
77.4726
10
-26.3879
20
78.1672
10
-26.9756
20
78.9188
10
-27.6504
20
79.7226
10
-28.4167
20
80.5733
10
-29.2785
20
81.4653
10
-30.2396
20
82.393
10
-31.3033
20
83.3504
10
-32.4729
20
84.3315
10
-33.7512
20
85.3299
10
-35.1408
20
86.3391
10
-36.6438
20
87.3526
10
-38.2622
20
88.3635
10
-39.9976
20
89.3651
10
-41.851
20
90.3503
10
-43.2681
20
90.1547
10
-49.5002
20
86.8892
10
-50.4675
20
85.8354
10
-50.7124
20
83.7507
10
-50.8766
20
81.7538
10
-50.9665
20
79.8477
10
-50.9887
20
78.0351
10
-50.9498
20
76.3181
10
-50.8565
20
74.6988
10
-50.7155
20
73.1787
10
-50.5338
20
71.7592
10
-50.318
20
70.441
10
-50.0751
20
69.2247
10
-49.8118
20
68.1104
10
-49.535
20
67.098
10
-49.2514
20
66.1871
10
-48.9677
20
65.3766
10
-48.6906
20
64.6654
10
-48.4266
20
64.0519
10
-48.1822
20
63.5342
10
-47.9636
20
63.1102
10
-47.777
20
62.7773
10
-47.6285
20
62.5326
10
-47.5239
20
62.373
10
-47.469
20
62.2949
10
-38.8911
20
51.0377
10
-51.9119
20
37.7162
10
-63.362
20
46.035
10
-63.4413
20
46.0881
10
-63.6032
20
46.189
10
-63.8513
20
46.3319
10
-64.1884
20
46.5108
10
-64.6173
20
46.7197
10
-65.1403
20
46.9523
10
-65.7597
20
47.2022
10
-66.477
20
47.463
10
-67.2938
20
47.7281
10
-68.211
20
47.9908
10
-69.2294
20
48.2445
10
-70.3494
20
48.4822
10
-71.5709
20
48.6973
10
-72.8937
20
48.883
10
-74.3171
20
49.0323
10
-75.8399
20
49.1385
10
-77.4609
20
49.1948
10
-79.1783
20
49.1946
10
-80.99
20
49.131
10
-82.8936
20
48.9976
10
-84.8862
20
48.7879
10
-86.9648
20
48.4955
10
-87.9962
20
47.5044
10
-91.1187
20
41.1994
10
-91.2819
20
39.7782
10
-90.2546
20
37.9477
10
-89.2137
20
36.2357
10
-88.1661
20
34.6408
10
-87.1186
20
33.1613
10
-86.0779
20
31.7951
10
-85.0506
20
30.5399
10
-84.0431
20
29.393
10
-83.0617
20
28.3514
10
-82.1123
20
27.4118
10
-81.2008
20
26.5705
10
-80.3329
20
25.8238
10
-79.5139
20
25.1675
10
-78.749
20
24.5972
10
-78.0431
20
24.1082
10
-77.4009
20
23.6957
10
-76.8267
20
23.3546
10
-76.3247
20
23.0795
10
-75.8986
20
22.865
10
-75.552
20
22.7053
10
-75.288
20
22.5946
10
-75.1096
20
22.5269
10
-75.0193
20
22.4961
10
-61.4627
20
18.4307
10
-64.1667
20
0
10
-78.3196
20
-0.0001
10
-78.415
20
-0.0037
10
-78.6053
20
-0.0173
10
-78.89
20
-0.0475
10
-79.2679
20
-0.1009
10
-79.7376
20
-0.184
10
-80.2975
20
-0.3033
10
-80.9455
20
-0.4652
10
-81.6791
20
-0.6758
10
-82.4957
20
-0.9414
10
-83.3922
20
-1.268
10
-84.3652
20
-1.6614
10
-85.411
20
-2.1274
10
-86.5257
20
-2.6714
10
-87.705
20
-3.2987
10
-88.9442
20
-4.0145
10
-90.2387
20
-4.8237
10
-91.5832
20
-5.7309
10
-92.9725
20
-6.7406
10
-94.4008
20
-7.8569
10
-95.8624
20
-9.0837
10
-97.3512
20
-10.4246
10
-98.8609
20
-11.8829
10
-99.1128
20
-13.291
10
-97.9329
20
-20.2272
10
-97.2296
20
-21.4729
10
-95.3226
20
-22.35
10
-93.4742
20
-23.1232
10
-91.6892
20
-23.7977
10
-89.9721
20
-24.379
10
-88.3272
20
-24.8725
10
-86.7583
20
-25.2842
10
-85.2691
20
-25.6198
10
-83.8628
20
-25.8856
10
-82.5425
20
-26.0878
10
-81.3106
20
-26.2326
10
-80.1695
20
-26.3266
10
-79.1212
20
-26.3761
10
-78.1672
20
-26.3879
10
-77.3087
20
-26.3686
10
-76.5466
20
-26.3249
10
-75.8816
20
-26.2633
10
-75.3138
20
-26.1908
10
-74.8429
20
-26.1139
10
-74.4686
20
-26.0394
10
-74.19
20
-25.9738
10
-74.0059
20
-25.9236
10
-73.9147
20
-25.8955
10
-60.5577
20
-21.2161
10
-51.9119
20
-37.7162
10
-63.3618
20
-46.0352
10
-63.4369
20
-46.0942
10
-63.5829
20
-46.2171
10
-63.7954
20
-46.4088
10
-64.0697
20
-46.6741
10
-64.4009
20
-47.0175
10
-64.7838
20
-47.4431
10
-65.2128
20
-47.9549
10
-65.6826
20
-48.5565
10
-66.1871
20
-49.2514
10
-66.7204
20
-50.0425
10
-67.2763
20
-50.9327
10
-67.8485
20
-51.9244
10
-68.4306
20
-53.0197
10
-69.0159
20
-54.2204
10
-69.5977
20
-55.5279
10
-70.1693
20
-56.9434
10
-70.7238
20
-58.4677
10
-71.2543
20
-60.1011
10
-71.7537
20
-61.8438
10
-72.215
20
-63.6954
10
-72.6313
20
-65.6553
10
-72.9956
20
-67.7225
10
-72.3717
20
-69.0097
10
-67.3402
20
-73.9277
10
-66.039
20
-74.522
10
-63.9807
20
-74.1107
10
-62.0308
20
-73.6498
10
-60.1902
20
-73.1463
10
-58.4594
20
-72.6073
10
-56.8385
20
-72.0397
10
-55.3273
20
-71.4506
10
-53.9252
20
-70.8468
10
-52.6312
20
-70.2353
10
-51.4442
20
-69.6227
10
-50.3625
20
-69.0158
10
-49.3842
20
-68.4211
10
-48.5069
20
-67.845
10
-47.7281
20
-67.2938
10
-47.0449
20
-66.7736
10
-46.4542
20
-66.2902
10
-45.9523
20
-65.8496
10
-45.5355
20
-65.4571
10
-45.1998
20
-65.1182
10
-44.9408
20
-64.8379
10
-44.754
20
-64.621
10
-44.6345
20
-64.4723
10
-44.5773
20
-64.3959
10
-36.5217
20
-52.7591
10
-19.8286
20
-61.0261
10
-24.202
20
-74.4865
10
-24.228
20
-74.5782
10
-24.2739
20
-74.7635
10
-24.3331
20
-75.0435
10
-24.3991
20
-75.4194
10
-24.4653
20
-75.8918
10
-24.5248
20
-76.4612
10
-24.5711
20
-77.1275
10
-24.5975
20
-77.8903
10
-24.5972
20
-78.749
10
-24.5636
20
-79.7025
10
-24.4901
20
-80.7495
10
-24.3702
20
-81.8881
10
-24.1973
20
-83.1163
10
-23.9651
20
-84.4317
10
-23.6672
20
-85.8315
10
-23.2977
20
-87.3127
10
-22.8503
20
-88.8718
10
-22.3194
20
-90.505
10
-21.6991
20
-92.2084
10
-20.984
20
-93.9776
10
-20.1688
20
-95.8079
10
-19.2484
20
-97.6943
10
-17.987
20
-98.369
10
-11.0257
20
-99.3903
10
-9.6237
20
-99.1064
10
-8.2002
20
-97.5637
10
-6.8937
20
-96.0447
10
-5.7006
20
-94.5555
10
-4.6171
20
-93.1021
10
-3.6394
20
-91.6902
10
-2.7631
20
-90.3253
10
-1.9837
20
-89.0127
10
-1.2963
20
-87.7574
10
-0.6961
20
-86.5641
10
-0.1777
20
-85.4373
10
0.2643
20
-84.3811
10
0.6354
20
-83.3994
10
0.9414
20
-82.4957
10
1.1884
20
-81.6733
10
1.3822
20
-80.935
10
1.5292
20
-80.2835
10
1.6357
20
-79.721
10
1.7081
20
-79.2495
10
1.7528
20
-78.8705
10
1.7765
20
-78.5852
10
1.7858
20
-78.3947
10
1.7872
20
-78.2993
10
1.4643
20
-64.15
10
19.8286
20
-61.0261
10
24.2022
20
-74.4864
10
24.2351
20
-74.5759
10
24.3069
20
-74.7527
10
24.4235
20
-75.0141
10
24.5911
20
-75.357
10
24.8153
20
-75.7781
10
25.1018
20
-76.2737
10
25.4559
20
-76.84
10
25.883
20
-77.4726
10
26.3879
20
-78.1672
10
26.9756
20
-78.9188
10
27.6504
20
-79.7226
10
28.4167
20
-80.5733
10
29.2785
20
-81.4653
10
30.2396
20
-82.393
10
31.3033
20
-83.3504
10
32.4729
20
-84.3315
10
33.7512
20
-85.3299
10
35.1408
20
-86.3391
10
36.6438
20
-87.3526
10
38.2622
20
-88.3635
10
39.9976
20
-89.3651
10
41.851
20
-90.3503
10
43.2681
20
-90.1547
10
49.5002
20
-86.8892
10
50.4675
20
-85.8354
10
50.7124
20
-83.7507
10
50.8766
20
-81.7538
10
50.9665
20
-79.8477
10
50.9887
20
-78.0351
10
50.9498
20
-76.3181
10
50.8565
20
-74.6988
10
50.7155
20
-73.1787
10
50.5338
20
-71.7592
10
50.318
20
-70.441
10
50.0751
20
-69.2247
10
49.8118
20
-68.1104
10
49.535
20
-67.098
10
49.2514
20
-66.1871
10
48.9677
20
-65.3766
10
48.6906
20
-64.6654
10
48.4266
20
-64.0519
10
48.1822
20
-63.5342
10
47.9636
20
-63.1102
10
47.777
20
-62.7773
10
47.6285
20
-62.5326
10
47.5239
20
-62.373
10
47.469
20
-62.2949
10
38.8911
20
-51.0377
10
51.9119
20
-37.7162
10
63.362
20
-46.035
10
63.4413
20
-46.0881
10
63.6032
20
-46.189
10
63.8513
20
-46.3319
10
64.1884
20
-46.5108
10
64.6173
20
-46.7197
10
65.1403
20
-46.9523
10
65.7597
20
-47.2022
10
66.477
20
-47.463
10
67.2938
20
-47.7281
10
68.211
20
-47.9908
10
69.2294
20
-48.2445
10
70.3494
20
-48.4822
10
71.5709
20
-48.6973
10
72.8937
20
-48.883
10
74.3171
20
-49.0323
10
75.8399
20
-49.1385
10
77.4609
20
-49.1948
10
79.1783
20
-49.1946
10
80.99
20
-49.131
10
82.8936
20
-48.9976
10
84.8862
20
-48.7879
10
86.9648
20
-48.4955
10
87.9962
20
-47.5044
10
91.1187
20
-41.1994
10
91.2819
20
-39.7782
10
90.2546
20
-37.9477
10
89.2137
20
-36.2357
10
88.1661
20
-34.6408
10
87.1186
20
-33.1613
10
86.0779
20
-31.7951
10
85.0506
20
-30.5399
10
84.0431
20
-29.393
10
83.0617
20
-28.3514
10
82.1123
20
-27.4118
10
81.2008
20
-26.5705
10
80.3329
20
-25.8238
10
79.5139
20
-25.1675
10
78.749
20
-24.5972
10
78.0431
20
-24.1082
10
77.4009
20
-23.6957
10
76.8267
20
-23.3546
10
76.3247
20
-23.0795
10
75.8986
20
-22.865
10
75.552
20
-22.7053
10
75.288
20
-22.5946
10
75.1096
20
-22.5269
10
75.0193
20
-22.4961
10
61.4627
20
-18.4307
8
gear
0
LWPOLYLINE
90
5
70
0
43
0
10
-34.1368
20
34.9972
10
-35.2136
20
33.9135
10
-36.256
20
32.7967
10
-37.2631
20
31.6479
10
-38.2337
20
30.4681
8
gear_texts
0
LWPOLYLINE
90
2
70
0
43
0
10
-33.99
20
30.7469
10
-38.522
20
34.8465
8
gear_texts
0
LWPOLYLINE
90
5
70
0
43
0
10
-36.2703
20
37.1845
10
-36.314
20
34.9733
10
-36.256
20
32.7967
10
-36.0986
20
30.6589
10
-35.8441
20
28.5639
8
gear_texts
0
LWPOLYLINE
90
5
70
0
43
0
10
-32.0032
20
32.8099
10
-34.1132
20
32.8537
10
-36.256
20
32.7967
10
-38.4275
20
32.6369
10
-40.6233
20
32.3724
8
gear_texts
0
LWPOLYLINE
90
3
70
0
43
0
10
-33.877
20
39.3773
10
-33.5898
20
41.6053
10
-27.8316
20
34.473
8
gear_texts
0
LWPOLYLINE
90
3
70
0
43
0
10
-26.7409
20
35.3257
10
-27.8316
20
34.473
10
-28.8951
20
33.5865
8
gear_texts
0
LWPOLYLINE
90
7
70
0
43
0
10
-16.0167
20
51.0171
10
-13.271
20
42.2713
10
-15.3397
20
43.9999
10
-17.5286
20
45.6385
10
-19.8341
20
47.1811
10
-22.2523
20
48.6222
10
-18.4376
20
40.2869
8
gear_texts
0
LWPOLYLINE
90
5
70
0
43
0
10
-5.8705
20
50.0737
10
-7.4321
20
49.8659
10
-8.9866
20
49.6093
10
-10.5322
20
49.3043
10
-12.0676
20
48.9511
8
gear_texts
0
LWPOLYLINE
90
5
70
0
43
0
10
-5.5147
20
47.039
10
-6.9817
20
46.8437
10
-8.4419
20
46.6027
10
-9.8939
20
46.3161
10
-11.3362
20
45.9844
8
gear_texts
0
LWPOLYLINE
90
3
70
0
43
0
10
-2.8142
20
51.8682
10
-1.2273
20
53.4581
10
-1.0169
20
44.2939
8
gear_texts
0
LWPOLYLINE
90
3
70
0
43
0
10
0.3676
20
44.304
10
-1.0169
20
44.2939
10
-2.4003
20
44.2405
8
gear_texts
0
LWPOLYLINE
90
9
70
0
43
0
10
7.5077
20
45.2143
10
5.8883
20
43.9125
10
4.5134
20
44.0751
10
3.2421
20
45.7185
10
3.6744
20
51.8143
10
5.4472
20
53.194
10
7.1066
20
52.9979
10
8.5087
20
51.2428
10
7.5077
20
45.2143
8
gear_texts
0
LWPOLYLINE
90
11
70
0
43
0
10
18.2834
20
45.3414
10
19.6912
20
44.748
10
21.0797
20
44.1109
10
22.4477
20
43.4307
10
24.5373
20
44.0427
10
25.2808
20
45.3774
10
24.5522
20
47.5023
10
23.056
20
48.2463
10
21.5373
20
48.9431
10
19.9975
20
49.5921
10
16.5694
20
41.0906
8
gear_texts
0
LWPOLYLINE
90
2
70
0
43
0
10
23.9384
20
37.2818
10
27.2402
20
42.4242
8
gear_texts
0
LWPOLYLINE
90
2
70
0
43
0
10
28.0657
20
43.7097
10
28.8912
20
44.9953
8
gear_texts
0
LWPOLYLINE
90
4
70
0
43
0
10
31.5189
20
33.2754
10
29.4484
20
33.1025
10
29.379
20
35.1791
10
34.2755
20
41.0423
8
gear_texts
0
LWPOLYLINE
90
5
70
0
43
0
10
34.6708
20
36.6029
10
33.5102
20
37.6684
10
32.3169
20
38.697
10
31.0921
20
39.6878
10
29.8368
20
40.6399
8
gear_texts
0
LWPOLYLINE
90
10
70
0
43
0
10
35.9302
20
25.9231
10
35.1027
20
27.033
10
34.2409
20
28.1166
10
33.3457
20
29.1727
10
33.5357
20
31.2418
10
35.7715
20
33.3246
10
37.9451
20
33.1966
10
38.9638
20
31.9948
10
39.9444
20
30.7617
10
40.8861
20
29.4987
8
gear_texts
0
LWPOLYLINE
90
6
70
0
43
0
10
40.0639
20
25.2578
10
42.1508
20
24.7677
10
44.2448
20
24.171
10
44.9784
20
22.7768
10
44.2842
20
20.7131
10
40.1326
20
18.7712
8
gear_texts
0
LWPOLYLINE
90
2
70
0
43
0
10
37.4792
20
23.6283
10
45.2335
20
28.5169
8
gear_texts
0
LWPOLYLINE
90
10
70
0
43
0
10
43.2497
20
9.6147
10
43.529
20
8.2587
10
43.7658
20
6.8946
10
43.9599
20
5.5238
10
45.6321
20
4.2906
10
51.7163
20
4.8627
10
53.055
20
6.6666
10
52.8208
20
8.3211
10
52.535
20
9.9674
10
52.198
20
11.604
8
gear_texts
0
LWPOLYLINE
90
2
70
0
43
0
10
52.535
20
9.9674
10
43.529
20
8.2587
8
gear_texts
0
LWPOLYLINE
90
5
70
0
43
0
10
50.1953
20
-4.7196
10
50.3182
20
-3.149
10
50.3921
20
-1.5753
10
50.4167
20
0
10
50.3921
20
1.5753
8
gear_texts
0
LWPOLYLINE
90
5
70
0
43
0
10
47.1531
20
-4.4336
10
47.2686
20
-2.9581
10
47.338
20
-1.4798
10
47.3611
20
0
10
47.338
20
1.4798
8
gear_texts
0
LWPOLYLINE
90
3
70
0
43
0
10
51.3116
20
-8.0833
10
52.535
20
-9.9674
10
43.529
20
-8.2587
8
gear_texts
0
LWPOLYLINE
90
3
70
0
43
0
10
43.2497
20
-9.6147
10
43.529
20
-8.2587
10
43.7658
20
-6.8946
8
gear_texts
0
LWPOLYLINE
90
2
70
0
43
0
10
44.0325
20
-12.7214
10
42.5648
20
-12.2973
8
gear_texts
0
LWPOLYLINE
90
14
70
0
43
0
10
46.0288
20
-16.4765
10
45.4915
20
-17.9067
10
44.9098
20
-19.3193
10
44.2842
20
-20.7131
10
42.2524
20
-21.3964
10
40.8895
20
-20.7062
10
40.1326
20
-18.7712
10
40.6995
20
-17.5081
10
41.2267
20
-16.2279
10
43.152
20
-15.4468
10
47.4672
20
-16.9914
10
48.3347
20
-19.0258
10
49.1201
20
-21.1305
10
48.4359
20
-22.6549
8
gear_texts
0
LWPOLYLINE
90
7
70
0
43
0
10
46.1024
20
-27.0896
10
45.2335
20
-28.5169
10
44.3204
20
-29.9163
10
43.364
20
-31.2865
10
42.3653
20
-32.6261
10
39.6471
20
-28.6048
10
36.7226
20
-24.7878
8
gear_texts
0
LWPOLYLINE
90
11
70
0
43
0
10
31.3376
20
-37.5243
10
30.1499
20
-38.4852
10
28.9327
20
-39.4084
10
27.6873
20
-40.2932
10
27.2402
20
-42.4242
10
28.0657
20
-43.7097
10
30.2829
20
-44.0707
10
31.6451
20
-43.1029
10
32.9764
20
-42.0932
10
34.2755
20
-41.0423
10
28.3997
20
-34.0064
8
gear_texts
0
LWPOLYLINE
90
5
70
0
43
0
10
18.8548
20
-46.7583
10
20.3066
20
-46.1463
10
21.7385
20
-45.4893
10
23.1492
20
-44.7879
10
24.5373
20
-44.0427
8
gear_texts
0
LWPOLYLINE
90
5
70
0
43
0
10
17.7121
20
-43.9244
10
19.0759
20
-43.3496
10
20.421
20
-42.7324
10
21.7462
20
-42.0735
10
23.0502
20
-41.3735
8
gear_texts
0
LWPOLYLINE
90
14
70
0
43
0
10
15.4158
20
-46.3948
10
13.9586
20
-46.8538
10
12.4879
20
-47.2671
10
11.0049
20
-47.6342
10
9.214
20
-46.4562
10
8.9168
20
-44.9576
10
9.9732
20
-43.1685
10
11.3171
20
-42.8358
10
12.65
20
-42.4613
10
14.4523
20
-43.4951
10
15.8975
20
-47.8446
10
14.831
20
-49.7822
10
13.6586
20
-51.6984
10
12.0366
20
-52.0999
8
gear_texts
0
LWPOLYLINE
90
11
70
0
43
0
10
-1.1221
20
-48.876
10
-2.6487
20
-48.8171
10
-4.1727
20
-48.7105
10
-5.6926
20
-48.5563
10
-7.4321
20
-49.8659
10
-7.6574
20
-51.3769
10
-6.2262
20
-53.1085
10
-4.5638
20
-53.2771
10
-2.897
20
-53.3937
10
-1.2273
20
-53.4581
10
-1.0169
20
-44.2939
8
gear_texts
0
LWPOLYLINE
90
7
70
0
43
0
10
-9.2556
20
-43.328
10
-9.8939
20
-46.3161
10
-12.0676
20
-48.9511
10
-14.4149
20
-51.4926
10
-15.1015
20
-48.1018
10
-15.5912
20
-44.7213
10
-14.5853
20
-41.836
8
gear_texts
0
LWPOLYLINE
90
5
70
0
43
0
10
-9.8939
20
-46.3161
10
-11.3362
20
-45.9844
10
-12.7675
20
-45.6077
10
-14.1862
20
-45.1866
10
-15.5912
20
-44.7213
8
gear_texts
0
LWPOLYLINE
90
5
70
0
43
0
10
-25.1802
20
-43.6784
10
-23.8031
20
-44.4438
10
-22.4029
20
-45.1658
10
-20.9807
20
-45.8437
10
-19.5381
20
-46.4769
8
gear_texts
0
LWPOLYLINE
90
5
70
0
43
0
10
-23.6541
20
-41.0312
10
-22.3605
20
-41.7502
10
-21.0451
20
-42.4285
10
-19.7092
20
-43.0653
10
-18.354
20
-43.6601
8
gear_texts
0
LWPOLYLINE
90
15
70
0
43
0
10
-28.8951
20
-33.5865
10
-27.8316
20
-34.473
10
-26.7409
20
-35.3257
10
-25.6241
20
-36.144
10
-24.4823
20
-36.927
10
-26.1707
20
-39.4737
10
-28.2748
20
-39.883
10
-29.5072
20
-38.9801
10
-30.7107
20
-38.0391
10
-32.8806
20
-38.2192
10
-33.877
20
-39.3773
10
-33.5898
20
-41.6053
10
-32.2735
20
-42.6345
10
-30.9256
20
-43.6221
10
-28.7033
20
-43.2937
8
gear_texts
0
LWPOLYLINE
90
9
70
0
43
0
10
-34.9341
20
-29.6699
10
-32.857
20
-29.722
10
-31.9123
20
-30.7341
10
-32.0032
20
-32.8099
10
-36.2703
20
-37.1845
10
-38.5149
20
-37.0929
10
-39.655
20
-35.8714
10
-39.592
20
-33.6258
10
-34.9341
20
-29.6699
8
gear_texts
0
LINE
10
10
20
0
30
0
11
-10
21
0
31
0
8
gear_guides
0
LINE
10
0
20
10
30
0
11
0
21
-10
31
0
8
gear_guides
0
CIRCLE
10
82.1532
20
13.9746
30
0
40
6.5417
8
gear_guides
0
CIRCLE
10
0
20
0
30
0
40
83.3333
8
gear_guides
0
CIRCLE
10
0
20
0
30
0
40
100
8
gear_guides
0
CIRCLE
10
0
20
0
30
0
40
78.3077
8
gear_guides
0
ENDSEC
0
EOF
