<?xml version="1.0" encoding="utf-8"?><!-- Generator: Iparigrafika Gear Generator by Abel Vincze http://geargenerator.com/ --><svg version="1.2" class="svggear" xmlns="http://www.w3.org/2000/svg" xmlns:xlink="http://www.w3.org/1999/xlink" x="0px" y="0px" width="200px" height="200px" viewBox="-100 -100 200 200" overflow="scroll" xml:space="preserve"><polygon id="gearpoly1" data-id="1" class="gear" fill="#ddd" stroke="#444" stroke-width="1" stroke-miterlimit="10" points="64.1667,0 78.3196,-0.0001 78.415,-0.0037 78.6053,-0.0173 78.89,-0.0475 79.2679,-0.1009 79.7376,-0.184 80.2975,-0.3033 80.9455,-0.4652 81.6791,-0.6758 82.4957,-0.9414 83.3922,-1.268 84.3652,-1.6614 85.411,-2.1274 86.5257,-2.6714 87.705,-3.2987 88.9442,-4.0145 90.2387,-4.8237 91.5832,-5.7309 92.9725,-6.7406 94.4008,-7.8569 95.8624,-9.0837 97.3512,-10.4246 98.8609,-11.8829 99.1128,-13.291 97.9329,-20.2272 97.2296,-21.4729 95.3226,-22.35 93.4742,-23.1232 91.6892,-23.7977 89.9721,-24.379 88.3272,-24.8725 86.7583,-25.2842 85.2691,-25.6198 83.8628,-25.8856 82.5425,-26.0878 81.3106,-26.2326 80.1695,-26.3266 79.1212,-26.3761 78.1672,-26.3879 77.3087,-26.3686 76.5466,-26.3249 75.8816,-26.2633 75.3138,-26.1908 74.8429,-26.1139 74.4686,-26.0394 74.19,-25.9738 74.0059,-25.9236 73.9147,-25.8955 60.5577,-21.2161 51.9119,-37.7162 63.3618,-46.0352 63.4369,-46.0942 63.5829,-46.2171 63.7954,-46.4088 64.0697,-46.6741 64.4009,-47.0175 64.7838,-47.4431 65.2128,-47.9549 65.6826,-48.5565 66.1871,-49.2514 66.7204,-50.0425 67.2763,-50.9327 67.8485,-51.9244 68.4306,-53.0197 69.0159,-54.2204 69.5977,-55.5279 70.1693,-56.9434 70.7238,-58.4677 71.2543,-60.1011 71.7537,-61.8438 72.215,-63.6954 72.6313,-65.6553 72.9956,-67.7225 72.3717,-69.0097 67.3402,-73.9277 66.039,-74.522 63.9807,-74.1107 62.0308,-73.6498 60.1902,-73.1463 58.4594,-72.6073 56.8385,-72.0397 55.3273,-71.4506 53.9252,-70.8468 52.6312,-70.2353 51.4442,-69.6227 50.3625,-69.0158 49.3842,-68.4211 48.5069,-67.845 47.7281,-67.2938 47.0449,-66.7736 46.4542,-66.2902 45.9523,-65.8496 45.5355,-65.4571 45.1998,-65.1182 44.9408,-64.8379 44.754,-64.621 44.6345,-64.4723 44.5773,-64.3959 36.5217,-52.7591 19.8286,-61.0261 24.202,-74.4865 24.228,-74.5782 24.2739,-74.7635 24.3331,-75.0435 24.3991,-75.4194 24.4653,-75.8918 24.5248,-76.4612 24.5711,-77.1275 24.5975,-77.8903 24.5972,-78.749 24.5636,-79.7025 24.4901,-80.7495 24.3702,-81.8881 24.1973,-83.1163 23.9651,-84.4317 23.6672,-85.8315 23.2977,-87.3127 22.8503,-88.8718 22.3194,-90.505 21.6991,-92.2084 20.984,-93.9776 20.1688,-95.8079 19.2484,-97.6943 17.987,-98.369 11.0257,-99.3903 9.6237,-99.1064 8.2002,-97.5637 6.8937,-96.0447 5.7006,-94.5555 4.6171,-93.1021 3.6394,-91.6902 2.7631,-90.3253 1.9837,-89.0127 1.2963,-87.7574 0.6961,-86.5641 0.1777,-85.4373 -0.2643,-84.3811 -0.6354,-83.3994 -0.9414,-82.4957 -1.1884,-81.6733 -1.3822,-80.935 -1.5292,-80.2835 -1.6357,-79.721 -1.7081,-79.2495 -1.7528,-78.8705 -1.7765,-78.5852 -1.7858,-78.3947 -1.7872,-78.2993 -1.4643,-64.15 -19.8286,-61.0261 -24.2022,-74.4864 -24.2351,-74.5759 -24.3069,-74.7527 -24.4235,-75.0141 -24.5911,-75.357 -24.8153,-75.7781 -25.1018,-76.2737 -25.4559,-76.84 -25.883,-77.4726 -26.3879,-78.1672 -26.9756,-78.9188 -27.6504,-79.7226 -28.4167,-80.5733 -29.2785,-81.4653 -30.2396,-82.393 -31.3033,-83.3504 -32.4729,-84.3315 -33.7512,-85.3299 -35.1408,-86.3391 -36.6438,-87.3526 -38.2622,-88.3635 -39.9976,-89.3651 -41.851,-90.3503 -43.2681,-90.1547 -49.5002,-86.8892 -50.4675,-85.8354 -50.7124,-83.7507 -50.8766,-81.7538 -50.9665,-79.8477 -50.9887,-78.0351 -50.9498,-76.3181 -50.8565,-74.6988 -50.7155,-73.1787 -50.5338,-71.7592 -50.318,-70.441 -50.0751,-69.2247 -49.8118,-68.1104 -49.535,-67.098 -49.2514,-66.1871 -48.9677,-65.3766 -48.6906,-64.6654 -48.4266,-64.0519 -48.1822,-63.5342 -47.9636,-63.1102 -47.777,-62.7773 -47.6285,-62.5326 -47.5239,-62.373 -47.469,-62.2949 -38.8911,-51.0377 -51.9119,-37.7162 -63.362,-46.035 -63.4413,-46.0881 -63.6032,-46.189 -63.8513,-46.3319 -64.1884,-46.5108 -64.6173,-46.7197 -65.1403,-46.9523 -65.7597,-47.2022 -66.477,-47.463 -67.2938,-47.7281 -68.211,-47.9908 -69.2294,-48.2445 -70.3494,-48.4822 -71.5709,-48.6973 -72.8937,-48.883 -74.3171,-49.0323 -75.8399,-49.1385 -77.4609,-49.1948 -79.1783,-49.1946 -80.99,-49.131 -82.8936,-48.9976 -84.8862,-48.7879 -86.9648,-48.4955 -87.9962,-47.5044 -91.1187,-41.1994 -91.2819,-39.7782 -90.2546,-37.9477 -89.2137,-36.2357 -88.1661,-34.6408 -87.1186,-33.1613 -86.0779,-31.7951 -85.0506,-30.5399 -84.0431,-29.393 -83.0617,-28.3514 -82.1123,-27.4118 -81.2008,-26.5705 -80.3329,-25.8238 -79.5139,-25.1675 -78.749,-24.5972 -78.0431,-24.1082 -77.4009,-23.6957 -76.8267,-23.3546 -76.3247,-23.0795 -75.8986,-22.865 -75.552,-22.7053 -75.288,-22.5946 -75.1096,-22.5269 -75.0193,-22.4961 -61.4627,-18.4307 -64.1667,0 -78.3196,0.0001 -78.415,0.0037 -78.6053,0.0173 -78.89,0.0475 -79.2679,0.1009 -79.7376,0.184 -80.2975,0.3033 -80.9455,0.4652 -81.6791,0.6758 -82.4957,0.9414 -83.3922,1.268 -84.3652,1.6614 -85.411,2.1274 -86.5257,2.6714 -87.705,3.2987 -88.9442,4.0145 -90.2387,4.8237 -91.5832,5.7309 -92.9725,6.7406 -94.4008,7.8569 -95.8624,9.0837 -97.3512,10.4246 -98.8609,11.8829 -99.1128,13.291 -97.9329,20.2272 -97.2296,21.4729 -95.3226,22.35 -93.4742,23.1232 -91.6892,23.7977 -89.9721,24.379 -88.3272,24.8725 -86.7583,25.2842 -85.2691,25.6198 -83.8628,25.8856 -82.5425,26.0878 -81.3106,26.2326 -80.1695,26.3266 -79.1212,26.3761 -78.1672,26.3879 -77.3087,26.3686 -76.5466,26.3249 -75.8816,26.2633 -75.3138,26.1908 -74.8429,26.1139 -74.4686,26.0394 -74.19,25.9738 -74.0059,25.9236 -73.9147,25.8955 -60.5577,21.2161 -51.9119,37.7162 -63.3618,46.0352 -63.4369,46.0942 -63.5829,46.2171 -63.7954,46.4088 -64.0697,46.6741 -64.4009,47.0175 -64.7838,47.4431 -65.2128,47.9549 -65.6826,48.5565 -66.1871,49.2514 -66.7204,50.0425 -67.2763,50.9327 -67.8485,51.9244 -68.4306,53.0197 -69.0159,54.2204 -69.5977,55.5279 -70.1693,56.9434 -70.7238,58.4677 -71.2543,60.1011 -71.7537,61.8438 -72.215,63.6954 -72.6313,65.6553 -72.9956,67.7225 -72.3717,69.0097 -67.3402,73.9277 -66.039,74.522 -63.9807,74.1107 -62.0308,73.6498 -60.1902,73.1463 -58.4594,72.6073 -56.8385,72.0397 -55.3273,71.4506 -53.9252,70.8468 -52.6312,70.2353 -51.4442,69.6227 -50.3625,69.0158 -49.3842,68.4211 -48.5069,67.845 -47.7281,67.2938 -47.0449,66.7736 -46.4542,66.2902 -45.9523,65.8496 -45.5355,65.4571 -45.1998,65.1182 -44.9408,64.8379 -44.754,64.621 -44.6345,64.4723 -44.5773,64.3959 -36.5217,52.7591 -19.8286,61.0261 -24.202,74.4865 -24.228,74.5782 -24.2739,74.7635 -24.3331,75.0435 -24.3991,75.4194 -24.4653,75.8918 -24.5248,76.4612 -24.5711,77.1275 -24.5975,77.8903 -24.5972,78.749 -24.5636,79.7025 -24.4901,80.7495 -24.3702,81.8881 -24.1973,83.1163 -23.9651,84.4317 -23.6672,85.8315 -23.2977,87.3127 -22.8503,88.8718 -22.3194,90.505 -21.6991,92.2084 -20.984,93.9776 -20.1688,95.8079 -19.2484,97.6943 -17.987,98.369 -11.0257,99.3903 -9.6237,99.1064 -8.2002,97.5637 -6.8937,96.0447 -5.7006,94.5555 -4.6171,93.1021 -3.6394,91.6902 -2.7631,90.3253 -1.9837,89.0127 -1.2963,87.7574 -0.6961,86.5641 -0.1777,85.4373 0.2643,84.3811 0.6354,83.3994 0.9414,82.4957 1.1884,81.6733 1.3822,80.935 1.5292,80.2835 1.6357,79.721 1.7081,79.2495 1.7528,78.8705 1.7765,78.5852 1.7858,78.3947 1.7872,78.2993 1.4643,64.15 19.8286,61.0261 24.2022,74.4864 24.2351,74.5759 24.3069,74.7527 24.4235,75.0141 24.5911,75.357 24.8153,75.7781 25.1018,76.2737 25.4559,76.84 25.883,77.4726 26.3879,78.1672 26.9756,78.9188 27.6504,79.7226 28.4167,80.5733 29.2785,81.4653 30.2396,82.393 31.3033,83.3504 32.4729,84.3315 33.7512,85.3299 35.1408,86.3391 36.6438,87.3526 38.2622,88.3635 39.9976,89.3651 41.851,90.3503 43.2681,90.1547 49.5002,86.8892 50.4675,85.8354 50.7124,83.7507 50.8766,81.7538 50.9665,79.8477 50.9887,78.0351 50.9498,76.3181 50.8565,74.6988 50.7155,73.1787 50.5338,71.7592 50.318,70.441 50.0751,69.2247 49.8118,68.1104 49.535,67.098 49.2514,66.1871 48.9677,65.3766 48.6906,64.6654 48.4266,64.0519 48.1822,63.5342 47.9636,63.1102 47.777,62.7773 47.6285,62.5326 47.5239,62.373 47.469,62.2949 38.8911,51.0377 51.9119,37.7162 63.362,46.035 63.4413,46.0881 63.6032,46.189 63.8513,46.3319 64.1884,46.5108 64.6173,46.7197 65.1403,46.9523 65.7597,47.2022 66.477,47.463 67.2938,47.7281 68.211,47.9908 69.2294,48.2445 70.3494,48.4822 71.5709,48.6973 72.8937,48.883 74.3171,49.0323 75.8399,49.1385 77.4609,49.1948 79.1783,49.1946 80.99,49.131 82.8936,48.9976 84.8862,48.7879 86.9648,48.4955 87.9962,47.5044 91.1187,41.1994 91.2819,39.7782 90.2546,37.9477 89.2137,36.2357 88.1661,34.6408 87.1186,33.1613 86.0779,31.7951 85.0506,30.5399 84.0431,29.393 83.0617,28.3514 82.1123,27.4118 81.2008,26.5705 80.3329,25.8238 79.5139,25.1675 78.749,24.5972 78.0431,24.1082 77.4009,23.6957 76.8267,23.3546 76.3247,23.0795 75.8986,22.865 75.552,22.7053 75.288,22.5946 75.1096,22.5269 75.0193,22.4961 61.4627,18.4307 "/><g class="guides"><polyline fill="none" stroke="#444" stroke-width="0.5" stroke-miterlimit="10" points="10,0 -10,0"/><polyline fill="none" stroke="#444" stroke-width="0.5" stroke-miterlimit="10" points="0,10 0,-10"/></g><circle fill="#c00" class="firstmarker" stroke="none" stroke-miterlimit="10" cx="82.1532" cy="-13.9746" r="6.5417"/><g class="geartext"><g class="text"><polyline fill="none" stroke="#444" stroke-width="0.5" stroke-linecap="square" stroke-miterlimit="1"  points="-34.14 -35 -35.21 -33.91 -36.26 -32.8 -37.26 -31.65 -38.23 -30.47 "/><polyline fill="none" stroke="#444" stroke-width="0.5" stroke-linecap="square" stroke-miterlimit="1"  points="-33.99 -30.75 -38.52 -34.85 "/><polyline fill="none" stroke="#444" stroke-width="0.5" stroke-linecap="square" stroke-miterlimit="1"  points="-36.27 -37.18 -36.31 -34.97 -36.26 -32.8 -36.1 -30.66 -35.84 -28.56 "/><polyline fill="none" stroke="#444" stroke-width="0.5" stroke-linecap="square" stroke-miterlimit="1"  points="-32 -32.81 -34.11 -32.85 -36.26 -32.8 -38.43 -32.64 -40.62 -32.37 "/><polyline fill="none" stroke="#444" stroke-width="0.5" stroke-linecap="square" stroke-miterlimit="1"  points="-33.88 -39.38 -33.59 -41.61 -27.83 -34.47 "/><polyline fill="none" stroke="#444" stroke-width="0.5" stroke-linecap="square" stroke-miterlimit="1"  points="-26.74 -35.33 -27.83 -34.47 -28.9 -33.59 "/><polyline fill="none" stroke="#444" stroke-width="0.5" stroke-linecap="square" stroke-miterlimit="1"  points="-16.02 -51.02 -13.27 -42.27 -15.34 -44 -17.53 -45.64 -19.83 -47.18 -22.25 -48.62 -18.44 -40.29 "/><polyline fill="none" stroke="#444" stroke-width="0.5" stroke-linecap="square" stroke-miterlimit="1"  points="-5.87 -50.07 -7.43 -49.87 -8.99 -49.61 -10.53 -49.3 -12.07 -48.95 "/><polyline fill="none" stroke="#444" stroke-width="0.5" stroke-linecap="square" stroke-miterlimit="1"  points="-5.51 -47.04 -6.98 -46.84 -8.44 -46.6 -9.89 -46.32 -11.34 -45.98 "/><polyline fill="none" stroke="#444" stroke-width="0.5" stroke-linecap="square" stroke-miterlimit="1"  points="-2.81 -51.87 -1.23 -53.46 -1.02 -44.29 "/><polyline fill="none" stroke="#444" stroke-width="0.5" stroke-linecap="square" stroke-miterlimit="1"  points="0.37 -44.3 -1.02 -44.29 -2.4 -44.24 "/><polyline fill="none" stroke="#444" stroke-width="0.5" stroke-linecap="square" stroke-miterlimit="1"  points="7.51 -45.21 5.89 -43.91 4.51 -44.08 3.24 -45.72 3.67 -51.81 5.45 -53.19 7.11 -53 8.51 -51.24 7.51 -45.21 "/><polyline fill="none" stroke="#444" stroke-width="0.5" stroke-linecap="square" stroke-miterlimit="1"  points="18.28 -45.34 19.69 -44.75 21.08 -44.11 22.45 -43.43 24.54 -44.04 25.28 -45.38 24.55 -47.5 23.06 -48.25 21.54 -48.94 20 -49.59 16.57 -41.09 "/><polyline fill="none" stroke="#444" stroke-width="0.5" stroke-linecap="square" stroke-miterlimit="1"  points="23.94 -37.28 27.24 -42.42 "/><polyline fill="none" stroke="#444" stroke-width="0.5" stroke-linecap="square" stroke-miterlimit="1"  points="28.07 -43.71 28.89 -45 "/><polyline fill="none" stroke="#444" stroke-width="0.5" stroke-linecap="square" stroke-miterlimit="1"  points="31.52 -33.28 29.45 -33.1 29.38 -35.18 34.28 -41.04 "/><polyline fill="none" stroke="#444" stroke-width="0.5" stroke-linecap="square" stroke-miterlimit="1"  points="34.67 -36.6 33.51 -37.67 32.32 -38.7 31.09 -39.69 29.84 -40.64 "/><polyline fill="none" stroke="#444" stroke-width="0.5" stroke-linecap="square" stroke-miterlimit="1"  points="35.93 -25.92 35.1 -27.03 34.24 -28.12 33.35 -29.17 33.54 -31.24 35.77 -33.32 37.95 -33.2 38.96 -31.99 39.94 -30.76 40.89 -29.5 "/><polyline fill="none" stroke="#444" stroke-width="0.5" stroke-linecap="square" stroke-miterlimit="1"  points="40.06 -25.26 42.15 -24.77 44.24 -24.17 44.98 -22.78 44.28 -20.71 40.13 -18.77 "/><polyline fill="none" stroke="#444" stroke-width="0.5" stroke-linecap="square" stroke-miterlimit="1"  points="37.48 -23.63 45.23 -28.52 "/><polyline fill="none" stroke="#444" stroke-width="0.5" stroke-linecap="square" stroke-miterlimit="1"  points="43.25 -9.61 43.53 -8.26 43.77 -6.89 43.96 -5.52 45.63 -4.29 51.72 -4.86 53.06 -6.67 52.82 -8.32 52.54 -9.97 52.2 -11.6 "/><polyline fill="none" stroke="#444" stroke-width="0.5" stroke-linecap="square" stroke-miterlimit="1"  points="52.54 -9.97 43.53 -8.26 "/><polyline fill="none" stroke="#444" stroke-width="0.5" stroke-linecap="square" stroke-miterlimit="1"  points="50.2 4.72 50.32 3.15 50.39 1.58 50.42 0 50.39 -1.58 "/><polyline fill="none" stroke="#444" stroke-width="0.5" stroke-linecap="square" stroke-miterlimit="1"  points="47.15 4.43 47.27 2.96 47.34 1.48 47.36 0 47.34 -1.48 "/><polyline fill="none" stroke="#444" stroke-width="0.5" stroke-linecap="square" stroke-miterlimit="1"  points="51.31 8.08 52.54 9.97 43.53 8.26 "/><polyline fill="none" stroke="#444" stroke-width="0.5" stroke-linecap="square" stroke-miterlimit="1"  points="43.25 9.61 43.53 8.26 43.77 6.89 "/><polyline fill="none" stroke="#444" stroke-width="0.5" stroke-linecap="square" stroke-miterlimit="1"  points="44.03 12.72 42.56 12.3 "/><polyline fill="none" stroke="#444" stroke-width="0.5" stroke-linecap="square" stroke-miterlimit="1"  points="46.03 16.48 45.49 17.91 44.91 19.32 44.28 20.71 42.25 21.4 40.89 20.71 40.13 18.77 40.7 17.51 41.23 16.23 43.15 15.45 47.47 16.99 48.33 19.03 49.12 21.13 48.44 22.65 "/><polyline fill="none" stroke="#444" stroke-width="0.5" stroke-linecap="square" stroke-miterlimit="1"  points="46.1 27.09 45.23 28.52 44.32 29.92 43.36 31.29 42.37 32.63 39.65 28.6 36.72 24.79 "/><polyline fill="none" stroke="#444" stroke-width="0.5" stroke-linecap="square" stroke-miterlimit="1"  points="31.34 37.52 30.15 38.49 28.93 39.41 27.69 40.29 27.24 42.42 28.07 43.71 30.28 44.07 31.65 43.1 32.98 42.09 34.28 41.04 28.4 34.01 "/><polyline fill="none" stroke="#444" stroke-width="0.5" stroke-linecap="square" stroke-miterlimit="1"  points="18.85 46.76 20.31 46.15 21.74 45.49 23.15 44.79 24.54 44.04 "/><polyline fill="none" stroke="#444" stroke-width="0.5" stroke-linecap="square" stroke-miterlimit="1"  points="17.71 43.92 19.08 43.35 20.42 42.73 21.75 42.07 23.05 41.37 "/><polyline fill="none" stroke="#444" stroke-width="0.5" stroke-linecap="square" stroke-miterlimit="1"  points="15.42 46.39 13.96 46.85 12.49 47.27 11 47.63 9.21 46.46 8.92 44.96 9.97 43.17 11.32 42.84 12.65 42.46 14.45 43.5 15.9 47.84 14.83 49.78 13.66 51.7 12.04 52.1 "/><polyline fill="none" stroke="#444" stroke-width="0.5" stroke-linecap="square" stroke-miterlimit="1"  points="-1.12 48.88 -2.65 48.82 -4.17 48.71 -5.69 48.56 -7.43 49.87 -7.66 51.38 -6.23 53.11 -4.56 53.28 -2.9 53.39 -1.23 53.46 -1.02 44.29 "/><polyline fill="none" stroke="#444" stroke-width="0.5" stroke-linecap="square" stroke-miterlimit="1"  points="-9.26 43.33 -9.89 46.32 -12.07 48.95 -14.41 51.49 -15.1 48.1 -15.59 44.72 -14.59 41.84 "/><polyline fill="none" stroke="#444" stroke-width="0.5" stroke-linecap="square" stroke-miterlimit="1"  points="-9.89 46.32 -11.34 45.98 -12.77 45.61 -14.19 45.19 -15.59 44.72 "/><polyline fill="none" stroke="#444" stroke-width="0.5" stroke-linecap="square" stroke-miterlimit="1"  points="-25.18 43.68 -23.8 44.44 -22.4 45.17 -20.98 45.84 -19.54 46.48 "/><polyline fill="none" stroke="#444" stroke-width="0.5" stroke-linecap="square" stroke-miterlimit="1"  points="-23.65 41.03 -22.36 41.75 -21.05 42.43 -19.71 43.07 -18.35 43.66 "/><polyline fill="none" stroke="#444" stroke-width="0.5" stroke-linecap="square" stroke-miterlimit="1"  points="-28.9 33.59 -27.83 34.47 -26.74 35.33 -25.62 36.14 -24.48 36.93 -26.17 39.47 -28.27 39.88 -29.51 38.98 -30.71 38.04 -32.88 38.22 -33.88 39.38 -33.59 41.61 -32.27 42.63 -30.93 43.62 -28.7 43.29 "/><polyline fill="none" stroke="#444" stroke-width="0.5" stroke-linecap="square" stroke-miterlimit="1"  points="-34.93 29.67 -32.86 29.72 -31.91 30.73 -32 32.81 -36.27 37.18 -38.51 37.09 -39.66 35.87 -39.59 33.63 -34.93 29.67 "/></g></g><g class="guides gearguides" opacity="0.2"><circle class="pitch" fill="none" stroke="#f00" stroke-miterlimit="10" cx="0" cy="0" r="83.33"/><circle class="outer" fill="none" stroke="#ccc" stroke-miterlimit="10" stroke-dasharray="2,2" cx="0" cy="0" r="100"/><circle class="base" fill="none" stroke="#00f" stroke-miterlimit="10" stroke-dasharray="2,2" cx="0" cy="0" r="78.31"/></g></svg>