<?xml version="1.0" encoding="UTF-8" standalone="no"?>
<!-- Created with Inkscape (http://www.inkscape.org/) -->

<svg
   xmlns:dc="http://purl.org/dc/elements/1.1/"
   xmlns:cc="http://creativecommons.org/ns#"
   xmlns:rdf="http://www.w3.org/1999/02/22-rdf-syntax-ns#"
   xmlns:svg="http://www.w3.org/2000/svg"
   xmlns="http://www.w3.org/2000/svg"
   xmlns:sodipodi="http://sodipodi.sourceforge.net/DTD/sodipodi-0.dtd"
   xmlns:inkscape="http://www.inkscape.org/namespaces/inkscape"
   version="1.1"
   id="svg3713"
   xml:space="preserve"
   width="1152"
   height="1152"
   viewBox="0 0 1152 1152"
   sodipodi:docname="laser_print.svg"
   inkscape:version="0.92.3pre0 (f5a6572, 2018-03-03)"><metadata
     id="metadata3719"><rdf:RDF><cc:Work
         rdf:about=""><dc:format>image/svg+xml</dc:format><dc:type
           rdf:resource="http://purl.org/dc/dcmitype/StillImage" /><dc:title></dc:title></cc:Work></rdf:RDF></metadata><defs
     id="defs3717" /><sodipodi:namedview
     pagecolor="#ffffff"
     bordercolor="#666666"
     borderopacity="1"
     objecttolerance="10"
     gridtolerance="10"
     guidetolerance="10"
     inkscape:pageopacity="0"
     inkscape:pageshadow="2"
     inkscape:window-width="3840"
     inkscape:window-height="2004"
     id="namedview3715"
     showgrid="false"
     inkscape:zoom="1.4557292"
     inkscape:cx="576"
     inkscape:cy="607.33408"
     inkscape:window-x="-16"
     inkscape:window-y="-16"
     inkscape:window-maximized="1"
     inkscape:current-layer="g3721" /><g
     id="g3721"
     inkscape:groupmode="layer"
     inkscape:label="laser_print"
     transform="matrix(1.3333333,0,0,-1.3333333,0,1152)"><path
       d="M 93.51938,728.84454 H 723.51941"
       style="fill:none;stroke:#000000;stroke-width:1.44000006;stroke-linecap:butt;stroke-linejoin:miter;stroke-miterlimit:2;stroke-dasharray:none;stroke-opacity:1"
       id="path3731"
       inkscape:connector-curvature="0" /><path
       d="M 723.51941,818.84454 H 93.51938"
       style="fill:none;stroke:#000000;stroke-width:1.44000006;stroke-linecap:butt;stroke-linejoin:miter;stroke-miterlimit:2;stroke-dasharray:none;stroke-opacity:1"
       id="path3733"
       inkscape:connector-curvature="0" /><path
       d="m 89.62164,611.52832 h 630"
       style="fill:none;stroke:#000000;stroke-width:1.44000006;stroke-linecap:butt;stroke-linejoin:miter;stroke-miterlimit:2;stroke-dasharray:none;stroke-opacity:1"
       id="path3735"
       inkscape:connector-curvature="0" /><path
       d="m 719.62164,701.52832 h -630"
       style="fill:none;stroke:#000000;stroke-width:1.44000006;stroke-linecap:butt;stroke-linejoin:miter;stroke-miterlimit:2;stroke-dasharray:none;stroke-opacity:1"
       id="path3737"
       inkscape:connector-curvature="0" /><path
       d="m 131.93089,527.79694 h 517.5074"
       style="fill:none;stroke:#000000;stroke-width:1.44000006;stroke-linecap:butt;stroke-linejoin:miter;stroke-miterlimit:2;stroke-dasharray:none;stroke-opacity:1"
       id="path3739"
       inkscape:connector-curvature="0" /><path
       d="M 649.43829,563.79694 H 131.93089"
       style="fill:none;stroke:#000000;stroke-width:1.44000006;stroke-linecap:butt;stroke-linejoin:miter;stroke-miterlimit:2;stroke-dasharray:none;stroke-opacity:1"
       id="path3741"
       inkscape:connector-curvature="0" /><path
       d="m 136.60251,499.36975 v -198"
       style="fill:none;stroke:#000000;stroke-width:1.44000006;stroke-linecap:butt;stroke-linejoin:miter;stroke-miterlimit:2;stroke-dasharray:none;stroke-opacity:1"
       id="path3743"
       inkscape:connector-curvature="0" /><path
       d="m 136.60251,301.36975 h 252"
       style="fill:none;stroke:#000000;stroke-width:1.44000006;stroke-linecap:butt;stroke-linejoin:miter;stroke-miterlimit:2;stroke-dasharray:none;stroke-opacity:1"
       id="path3745"
       inkscape:connector-curvature="0" /><path
       d="m 388.60251,499.36975 h -252"
       style="fill:none;stroke:#000000;stroke-width:1.44000006;stroke-linecap:butt;stroke-linejoin:miter;stroke-miterlimit:2;stroke-dasharray:none;stroke-opacity:1"
       id="path3747"
       inkscape:connector-curvature="0" /><path
       d="m 424.60251,337.36975 v 126"
       style="fill:none;stroke:#000000;stroke-width:1.44000006;stroke-linecap:butt;stroke-linejoin:miter;stroke-miterlimit:2;stroke-dasharray:none;stroke-opacity:1"
       id="path3749"
       inkscape:connector-curvature="0" /><path
       d="m 388.60251,301.36975 36,36"
       style="fill:none;stroke:#000000;stroke-width:1.44000006;stroke-linecap:butt;stroke-linejoin:miter;stroke-miterlimit:2;stroke-dasharray:none;stroke-opacity:1"
       id="path3751"
       inkscape:connector-curvature="0" /><path
       d="m 424.60251,463.36975 -36,36"
       style="fill:none;stroke:#000000;stroke-width:1.44000006;stroke-linecap:butt;stroke-linejoin:miter;stroke-miterlimit:2;stroke-dasharray:none;stroke-opacity:1"
       id="path3753"
       inkscape:connector-curvature="0" /><path
       d="M 115.56955,206.88403 H 219.32034"
       style="fill:none;stroke:#000000;stroke-width:1.44000006;stroke-linecap:butt;stroke-linejoin:miter;stroke-miterlimit:2;stroke-dasharray:none;stroke-opacity:1"
       id="path3755"
       inkscape:connector-curvature="0" /><path
       d="M 219.32034,242.88403 H 115.56955"
       style="fill:none;stroke:#000000;stroke-width:1.44000006;stroke-linecap:butt;stroke-linejoin:miter;stroke-miterlimit:2;stroke-dasharray:none;stroke-opacity:1"
       id="path3757"
       inkscape:connector-curvature="0" /><path
       d="M 355.16498,208.34055 H 458.91574"
       style="fill:none;stroke:#000000;stroke-width:1.44000006;stroke-linecap:butt;stroke-linejoin:miter;stroke-miterlimit:2;stroke-dasharray:none;stroke-opacity:1"
       id="path3759"
       inkscape:connector-curvature="0" /><path
       d="M 458.91574,244.34055 H 355.16498"
       style="fill:none;stroke:#000000;stroke-width:1.44000006;stroke-linecap:butt;stroke-linejoin:miter;stroke-miterlimit:2;stroke-dasharray:none;stroke-opacity:1"
       id="path3761"
       inkscape:connector-curvature="0" /><path
       d="m 116.19673,107.6747 h 77.05998"
       style="fill:none;stroke:#000000;stroke-width:1.44000006;stroke-linecap:butt;stroke-linejoin:miter;stroke-miterlimit:2;stroke-dasharray:none;stroke-opacity:1"
       id="path3763"
       inkscape:connector-curvature="0" /><path
       d="M 224.00766,103.60031 337.2381,66.61169"
       style="fill:none;stroke:#000000;stroke-width:1.44000006;stroke-linecap:butt;stroke-linejoin:miter;stroke-miterlimit:2;stroke-dasharray:none;stroke-opacity:1"
       id="path3765"
       inkscape:connector-curvature="0" /><path
       d="M 191.41046,145.54681 H 118.04297"
       style="fill:none;stroke:#000000;stroke-width:1.44000006;stroke-linecap:butt;stroke-linejoin:miter;stroke-miterlimit:2;stroke-dasharray:none;stroke-opacity:1"
       id="path3767"
       inkscape:connector-curvature="0" /><path
       d="M 348.41675,100.83211 236.70203,137.32562"
       style="fill:none;stroke:#000000;stroke-width:1.44000006;stroke-linecap:butt;stroke-linejoin:miter;stroke-miterlimit:2;stroke-dasharray:none;stroke-opacity:1"
       id="path3769"
       inkscape:connector-curvature="0" /><path
       d="m 337.2381,66.61169 11.17865,34.22042"
       style="fill:none;stroke:#000000;stroke-width:1.44000006;stroke-linecap:butt;stroke-linejoin:miter;stroke-miterlimit:2;stroke-dasharray:none;stroke-opacity:1"
       id="path3771"
       inkscape:connector-curvature="0" /><path
       d="M 409.04224,59.61136 397.86356,93.83177"
       style="fill:none;stroke:#000000;stroke-width:1.44000006;stroke-linecap:butt;stroke-linejoin:miter;stroke-miterlimit:2;stroke-dasharray:none;stroke-opacity:1"
       id="path3773"
       inkscape:connector-curvature="0" /><path
       d="m 397.86356,93.83177 111.71472,36.49352"
       style="fill:none;stroke:#000000;stroke-width:1.44000006;stroke-linecap:butt;stroke-linejoin:miter;stroke-miterlimit:2;stroke-dasharray:none;stroke-opacity:1"
       id="path3775"
       inkscape:connector-curvature="0" /><path
       d="M 630.08356,100.67436 H 553.02362"
       style="fill:none;stroke:#000000;stroke-width:1.44000006;stroke-linecap:butt;stroke-linejoin:miter;stroke-miterlimit:2;stroke-dasharray:none;stroke-opacity:1"
       id="path3777"
       inkscape:connector-curvature="0" /><path
       d="M 522.27264,96.59998 409.04224,59.61136"
       style="fill:none;stroke:#000000;stroke-width:1.44000006;stroke-linecap:butt;stroke-linejoin:miter;stroke-miterlimit:2;stroke-dasharray:none;stroke-opacity:1"
       id="path3779"
       inkscape:connector-curvature="0" /><path
       d="M 554.86981,138.54648 H 628.2373"
       style="fill:none;stroke:#000000;stroke-width:1.44000006;stroke-linecap:butt;stroke-linejoin:miter;stroke-miterlimit:2;stroke-dasharray:none;stroke-opacity:1"
       id="path3781"
       inkscape:connector-curvature="0" /><path
       d="m 768.51941,773.84454 c 0,-24.85284 -20.14722,-45 -45,-45 m 0,90 c 24.85278,0 45,-20.14721 45,-45"
       style="fill:none;stroke:#000000;stroke-width:1.44000006;stroke-linecap:butt;stroke-linejoin:miter;stroke-miterlimit:2;stroke-dasharray:none;stroke-opacity:1"
       id="path3783"
       inkscape:connector-curvature="0" /><path
       d="m 93.51938,818.84454 c -24.85282,0 -45,-20.14721 -45,-45 m 0,0 c 0,-24.85284 20.14718,-45 45,-45"
       style="fill:none;stroke:#000000;stroke-width:1.44000006;stroke-linecap:butt;stroke-linejoin:miter;stroke-miterlimit:2;stroke-dasharray:none;stroke-opacity:1"
       id="path3785"
       inkscape:connector-curvature="0" /><path
       d="m 764.62164,656.52832 c 0,-24.85278 -20.14721,-45 -45,-45 m 0,90 c 24.85279,0 45,-20.14716 45,-45"
       style="fill:none;stroke:#000000;stroke-width:1.44000006;stroke-linecap:butt;stroke-linejoin:miter;stroke-miterlimit:2;stroke-dasharray:none;stroke-opacity:1"
       id="path3787"
       inkscape:connector-curvature="0" /><path
       d="m 89.62164,701.52832 c -24.85281,0 -45,-20.14716 -45,-45 m 0,0 c 0,-24.85278 20.14719,-45 45,-45"
       style="fill:none;stroke:#000000;stroke-width:1.44000006;stroke-linecap:butt;stroke-linejoin:miter;stroke-miterlimit:2;stroke-dasharray:none;stroke-opacity:1"
       id="path3789"
       inkscape:connector-curvature="0" /><path
       d="m 679.19708,520.57428 c -10.4577,-3.99451 -22.29571,-1.12134 -29.75879,7.22266 m 47.12464,18 c 0,-11.19465 -6.90808,-21.22815 -17.36585,-25.22266 m 0,50.44531 c 10.45777,-3.9945 17.36585,-14.02801 17.36585,-25.22265 m -47.12464,18 c 7.46308,8.34399 19.30109,11.21716 29.75879,7.22265"
       style="fill:none;stroke:#000000;stroke-width:1.44000006;stroke-linecap:butt;stroke-linejoin:miter;stroke-miterlimit:2;stroke-dasharray:none;stroke-opacity:1"
       id="path3791"
       inkscape:connector-curvature="0" /><path
       d="m 131.93089,563.79694 c -7.46309,8.34399 -19.3011,11.21716 -29.75882,7.22265 m 0,0 c -10.45771,-3.9945 -17.3658,-14.02801 -17.3658,-25.22265 m 0,0 c 0,-11.19465 6.90809,-21.22815 17.3658,-25.22266 m 0,0 c 10.45772,-3.99451 22.29573,-1.12134 29.75882,7.22266"
       style="fill:none;stroke:#000000;stroke-width:1.44000006;stroke-linecap:butt;stroke-linejoin:miter;stroke-miterlimit:2;stroke-dasharray:none;stroke-opacity:1"
       id="path3793"
       inkscape:connector-curvature="0" /><path
       d="m 673.1629,545.79694 c 0,1.98822 -1.61175,3.60003 -3.59997,3.60003 -1.98822,0 -3.60004,-1.61181 -3.60004,-3.60003 0,-1.98822 1.61182,-3.59998 3.60004,-3.59998 1.98822,0 3.59997,1.61176 3.59997,3.59998"
       style="fill:none;stroke:#000000;stroke-width:1.44000006;stroke-linecap:butt;stroke-linejoin:miter;stroke-miterlimit:2;stroke-dasharray:none;stroke-opacity:1"
       id="path3795"
       inkscape:connector-curvature="0" /><path
       d="m 115.40628,545.79694 c 0,1.98822 -1.61179,3.60003 -3.60001,3.60003 -1.98822,0 -3.6,-1.61181 -3.6,-3.60003 0,-1.98822 1.61178,-3.59998 3.6,-3.59998 1.98822,0 3.60001,1.61176 3.60001,3.59998"
       style="fill:none;stroke:#000000;stroke-width:1.44000006;stroke-linecap:butt;stroke-linejoin:miter;stroke-miterlimit:2;stroke-dasharray:none;stroke-opacity:1"
       id="path3797"
       inkscape:connector-curvature="0" /><path
       d="m 249.07913,199.66138 c -10.4577,-3.99448 -22.29571,-1.12131 -29.75879,7.22265 m 47.12461,18 c 0,-11.19461 -6.90808,-21.22815 -17.36582,-25.22265 m 0,50.44531 c 10.45774,-3.99451 17.36582,-14.02802 17.36582,-25.22266 m -47.12461,18 c 7.46308,8.344 19.30109,11.21717 29.75879,7.22266"
       style="fill:none;stroke:#000000;stroke-width:1.44000006;stroke-linecap:butt;stroke-linejoin:miter;stroke-miterlimit:2;stroke-dasharray:none;stroke-opacity:1"
       id="path3799"
       inkscape:connector-curvature="0" /><path
       d="m 115.56955,242.88403 c -7.46309,8.344 -19.30109,11.21717 -29.7588,7.22266 m 0,0 c -10.45772,-3.99451 -17.3658,-14.02802 -17.3658,-25.22266 m 0,0 c 0,-11.19461 6.90808,-21.22815 17.3658,-25.22265 m 0,0 c 10.45771,-3.99448 22.29571,-1.12131 29.7588,7.22265"
       style="fill:none;stroke:#000000;stroke-width:1.44000006;stroke-linecap:butt;stroke-linejoin:miter;stroke-miterlimit:2;stroke-dasharray:none;stroke-opacity:1"
       id="path3801"
       inkscape:connector-curvature="0" /><path
       d="m 488.67456,201.11789 c -10.45773,-3.99448 -22.29571,-1.12134 -29.75882,7.22266 m 47.1246,18 c 0,-11.19465 -6.90808,-21.22815 -17.36578,-25.22266 m 0,50.44531 c 10.4577,-3.9945 17.36578,-14.02801 17.36578,-25.22265 m -47.1246,18 c 7.46311,8.34399 19.30109,11.21713 29.75882,7.22265"
       style="fill:none;stroke:#000000;stroke-width:1.44000006;stroke-linecap:butt;stroke-linejoin:miter;stroke-miterlimit:2;stroke-dasharray:none;stroke-opacity:1"
       id="path3803"
       inkscape:connector-curvature="0" /><path
       d="m 355.16498,244.34055 c -7.46311,8.34399 -19.30112,11.21713 -29.75882,7.22265 m 0,0 c -10.4577,-3.9945 -17.36582,-14.02801 -17.36582,-25.22265 m 0,0 c 0,-11.19465 6.90812,-21.22815 17.36582,-25.22266 m 0,0 c 10.4577,-3.99448 22.29571,-1.12134 29.75882,7.22266"
       style="fill:none;stroke:#000000;stroke-width:1.44000006;stroke-linecap:butt;stroke-linejoin:miter;stroke-miterlimit:2;stroke-dasharray:none;stroke-opacity:1"
       id="path3805"
       inkscape:connector-curvature="0" /><path
       d="m 236.70203,137.32562 c -3.40097,8.75284 -11.10538,15.10999 -20.34476,16.78708 m 0,0 c -9.23938,1.67713 -18.68655,-1.56671 -24.94681,-8.56589"
       style="fill:none;stroke:#000000;stroke-width:1.44000006;stroke-linecap:butt;stroke-linejoin:miter;stroke-miterlimit:2;stroke-dasharray:none;stroke-opacity:1"
       id="path3807"
       inkscape:connector-curvature="0" /><path
       d="m 193.25671,107.6747 c 8.36957,-7.69831 20.66541,-9.32746 30.75095,-4.07439"
       style="fill:none;stroke:#000000;stroke-width:1.44000006;stroke-linecap:butt;stroke-linejoin:miter;stroke-miterlimit:2;stroke-dasharray:none;stroke-opacity:1"
       id="path3809"
       inkscape:connector-curvature="0" /><path
       d="m 118.04297,145.54681 c -7.30312,8.16517 -18.81596,11.10831 -29.14169,7.4498 m 0,0 C 78.57555,149.33813 71.4838,139.80319 70.95039,128.86151 m 0,0 c -0.5334,-10.94171 5.59728,-21.12123 15.51819,-25.76674 m 0,0 c 9.92092,-4.64551 21.66545,-2.83615 29.72815,4.57993"
       style="fill:none;stroke:#000000;stroke-width:1.44000006;stroke-linecap:butt;stroke-linejoin:miter;stroke-miterlimit:2;stroke-dasharray:none;stroke-opacity:1"
       id="path3811"
       inkscape:connector-curvature="0" /><path
       d="m 101.51836,127.54681 c 0,1.98822 -1.61177,3.60001 -3.59999,3.60001 -1.98822,0 -3.60001,-1.61179 -3.60001,-3.60001 0,-1.98822 1.61179,-3.6 3.60001,-3.6 1.98822,0 3.59999,1.61178 3.59999,3.6"
       style="fill:none;stroke:#000000;stroke-width:1.44000006;stroke-linecap:butt;stroke-linejoin:miter;stroke-miterlimit:2;stroke-dasharray:none;stroke-opacity:1"
       id="path3813"
       inkscape:connector-curvature="0" /><path
       d="m 522.27264,96.59998 c 10.08558,-5.25307 22.38141,-3.62392 30.75098,4.07438"
       style="fill:none;stroke:#000000;stroke-width:1.44000006;stroke-linecap:butt;stroke-linejoin:miter;stroke-miterlimit:2;stroke-dasharray:none;stroke-opacity:1"
       id="path3815"
       inkscape:connector-curvature="0" /><path
       d="m 554.86981,138.54648 c -6.26019,6.99917 -15.7074,10.24301 -24.94678,8.56589 m 0,0 c -9.23934,-1.6771 -16.94378,-8.03425 -20.34475,-16.78708"
       style="fill:none;stroke:#000000;stroke-width:1.44000006;stroke-linecap:butt;stroke-linejoin:miter;stroke-miterlimit:2;stroke-dasharray:none;stroke-opacity:1"
       id="path3817"
       inkscape:connector-curvature="0" /><path
       d="m 659.81171,96.09444 c -9.9209,-4.64551 -21.66541,-2.83615 -29.72815,4.57992 m 45.24634,21.18679 c 0.53344,-10.94169 -5.5973,-21.12121 -15.51819,-25.76671 m -2.43268,49.90184 c 10.32574,-3.65851 17.41748,-13.19342 17.95087,-24.13513 m -47.0926,16.68533 c 7.30317,8.16516 18.81598,11.10831 29.14173,7.4498"
       style="fill:none;stroke:#000000;stroke-width:1.44000006;stroke-linecap:butt;stroke-linejoin:miter;stroke-miterlimit:2;stroke-dasharray:none;stroke-opacity:1"
       id="path3819"
       inkscape:connector-curvature="0" /><path
       d="m 538.34521,120.54648 c 0,1.98822 -1.61175,3.6 -3.59997,3.6 -1.98822,0 -3.60004,-1.61178 -3.60004,-3.6 0,-1.98822 1.61182,-3.60001 3.60004,-3.60001 1.98822,0 3.59997,1.61179 3.59997,3.60001"
       style="fill:none;stroke:#000000;stroke-width:1.44000006;stroke-linecap:butt;stroke-linejoin:miter;stroke-miterlimit:2;stroke-dasharray:none;stroke-opacity:1"
       id="path3821"
       inkscape:connector-curvature="0" /><path
       d="m 651.96198,120.54648 c 0,1.98822 -1.61182,3.6 -3.60004,3.6 -1.98822,0 -3.59998,-1.61178 -3.59998,-3.6 0,-1.98822 1.61176,-3.60001 3.59998,-3.60001 1.98822,0 3.60004,1.61179 3.60004,3.60001"
       style="fill:none;stroke:#000000;stroke-width:1.44000006;stroke-linecap:butt;stroke-linejoin:miter;stroke-miterlimit:2;stroke-dasharray:none;stroke-opacity:1"
       id="path3823"
       inkscape:connector-curvature="0" /><path
       d="m 420.03937,774.20453 c 0,5.96466 -4.8353,10.79999 -10.79999,10.79999 -5.96466,0 -10.79999,-4.83533 -10.79999,-10.79999 0,-5.96466 4.83533,-10.79999 10.79999,-10.79999 5.96469,0 10.79999,4.83533 10.79999,10.79999"
       style="fill:none;stroke:#000000;stroke-width:1.44000006;stroke-linecap:butt;stroke-linejoin:miter;stroke-miterlimit:2;stroke-dasharray:none;stroke-opacity:1"
       id="path3825"
       inkscape:connector-curvature="0" /><path
       d="m 734.67938,774.20453 c 0,5.96466 -4.83532,10.79999 -10.79999,10.79999 -5.96466,0 -10.79998,-4.83533 -10.79998,-10.79999 0,-5.96466 4.83532,-10.79999 10.79998,-10.79999 5.96467,0 10.79999,4.83533 10.79999,10.79999"
       style="fill:none;stroke:#000000;stroke-width:1.44000006;stroke-linecap:butt;stroke-linejoin:miter;stroke-miterlimit:2;stroke-dasharray:none;stroke-opacity:1"
       id="path3827"
       inkscape:connector-curvature="0" /><path
       d="m 104.67938,774.20453 c 0,5.96466 -4.83532,10.79999 -10.8,10.79999 -5.96468,0 -10.79999,-4.83533 -10.79999,-10.79999 0,-5.96466 4.83531,-10.79999 10.79999,-10.79999 5.96468,0 10.8,4.83533 10.8,10.79999"
       style="fill:none;stroke:#000000;stroke-width:1.44000006;stroke-linecap:butt;stroke-linejoin:miter;stroke-miterlimit:2;stroke-dasharray:none;stroke-opacity:1"
       id="path3829"
       inkscape:connector-curvature="0" /><path
       d="m 129.87938,774.20453 c 0,1.19293 -0.96706,2.15997 -2.15999,2.15997 -1.19295,0 -2.16,-0.96704 -2.16,-2.15997 0,-1.19293 0.96705,-2.16004 2.16,-2.16004 1.19293,0 2.15999,0.96711 2.15999,2.16004"
       style="fill:none;stroke:#000000;stroke-width:1.44000006;stroke-linecap:butt;stroke-linejoin:miter;stroke-miterlimit:2;stroke-dasharray:none;stroke-opacity:1"
       id="path3831"
       inkscape:connector-curvature="0" /><path
       d="m 62.19939,774.20453 c 0,1.19293 -0.96707,2.15997 -2.16001,2.15997 -1.19293,0 -2.16,-0.96704 -2.16,-2.15997 0,-1.19293 0.96707,-2.16004 2.16,-2.16004 1.19294,0 2.16001,0.96711 2.16001,2.16004"
       style="fill:none;stroke:#000000;stroke-width:1.44000006;stroke-linecap:butt;stroke-linejoin:miter;stroke-miterlimit:2;stroke-dasharray:none;stroke-opacity:1"
       id="path3833"
       inkscape:connector-curvature="0" /><path
       d="m 416.14163,656.88831 c 0,5.96466 -4.83533,10.79998 -10.79999,10.79998 -5.96469,0 -10.80001,-4.83532 -10.80001,-10.79998 0,-5.96466 4.83532,-10.79999 10.80001,-10.79999 5.96466,0 10.79999,4.83533 10.79999,10.79999"
       style="fill:none;stroke:#000000;stroke-width:1.44000006;stroke-linecap:butt;stroke-linejoin:miter;stroke-miterlimit:2;stroke-dasharray:none;stroke-opacity:1"
       id="path3835"
       inkscape:connector-curvature="0" /><path
       d="m 730.78162,656.88831 c 0,5.96466 -4.83533,10.79998 -10.79999,10.79998 -5.96466,0 -10.79999,-4.83532 -10.79999,-10.79998 0,-5.96466 4.83533,-10.79999 10.79999,-10.79999 5.96466,0 10.79999,4.83533 10.79999,10.79999"
       style="fill:none;stroke:#000000;stroke-width:1.44000006;stroke-linecap:butt;stroke-linejoin:miter;stroke-miterlimit:2;stroke-dasharray:none;stroke-opacity:1"
       id="path3837"
       inkscape:connector-curvature="0" /><path
       d="m 100.78165,656.88831 c 0,5.96466 -4.83533,10.79998 -10.80001,10.79998 -5.96467,0 -10.8,-4.83532 -10.8,-10.79998 0,-5.96466 4.83533,-10.79999 10.8,-10.79999 5.96468,0 10.80001,4.83533 10.80001,10.79999"
       style="fill:none;stroke:#000000;stroke-width:1.44000006;stroke-linecap:butt;stroke-linejoin:miter;stroke-miterlimit:2;stroke-dasharray:none;stroke-opacity:1"
       id="path3839"
       inkscape:connector-curvature="0" /><path
       d="m 125.98164,656.88831 c 0,1.19293 -0.96707,2.16003 -2.16,2.16003 -1.19293,0 -2.16,-0.9671 -2.16,-2.16003 0,-1.19294 0.96707,-2.15998 2.16,-2.15998 1.19293,0 2.16,0.96704 2.16,2.15998"
       style="fill:none;stroke:#000000;stroke-width:1.44000006;stroke-linecap:butt;stroke-linejoin:miter;stroke-miterlimit:2;stroke-dasharray:none;stroke-opacity:1"
       id="path3841"
       inkscape:connector-curvature="0" /><path
       d="m 58.30164,656.88831 c 0,1.19293 -0.96706,2.16003 -2.16001,2.16003 -1.19293,0 -2.15999,-0.9671 -2.15999,-2.16003 0,-1.19294 0.96706,-2.15998 2.15999,-2.15998 1.19295,0 2.16001,0.96704 2.16001,2.15998"
       style="fill:none;stroke:#000000;stroke-width:1.44000006;stroke-linecap:butt;stroke-linejoin:miter;stroke-miterlimit:2;stroke-dasharray:none;stroke-opacity:1"
       id="path3843"
       inkscape:connector-curvature="0" /><path
       d="m 181.60251,391.36975 c 0,4.97055 -4.02945,9 -9,9 -4.97055,0 -9,-4.02945 -9,-9 0,-4.97058 4.02945,-9 9,-9 4.97055,0 9,4.02942 9,9"
       style="fill:none;stroke:#000000;stroke-width:1.44000006;stroke-linecap:butt;stroke-linejoin:miter;stroke-miterlimit:2;stroke-dasharray:none;stroke-opacity:1"
       id="path3845"
       inkscape:connector-curvature="0" /><path
       d="m 392.20248,418.72974 c 0,1.98822 -1.61175,3.6 -3.59997,3.6 -1.98825,0 -3.60001,-1.61178 -3.60001,-3.6 0,-1.98822 1.61176,-3.60001 3.60001,-3.60001 1.98822,0 3.59997,1.61179 3.59997,3.60001"
       style="fill:none;stroke:#000000;stroke-width:1.44000006;stroke-linecap:butt;stroke-linejoin:miter;stroke-miterlimit:2;stroke-dasharray:none;stroke-opacity:1"
       id="path3847"
       inkscape:connector-curvature="0" /><path
       d="m 392.20248,364.00974 c 0,1.98822 -1.61175,3.6 -3.59997,3.6 -1.98825,0 -3.60001,-1.61178 -3.60001,-3.6 0,-1.98823 1.61176,-3.60001 3.60001,-3.60001 1.98822,0 3.59997,1.61178 3.59997,3.60001"
       style="fill:none;stroke:#000000;stroke-width:1.44000006;stroke-linecap:butt;stroke-linejoin:miter;stroke-miterlimit:2;stroke-dasharray:none;stroke-opacity:1"
       id="path3849"
       inkscape:connector-curvature="0" /><path
       d="m 284.20248,454.00974 c 0,1.98822 -1.61175,3.6 -3.59997,3.6 -1.98825,0 -3.60001,-1.61178 -3.60001,-3.6 0,-1.98823 1.61176,-3.60001 3.60001,-3.60001 1.98822,0 3.59997,1.61178 3.59997,3.60001"
       style="fill:none;stroke:#000000;stroke-width:1.44000006;stroke-linecap:butt;stroke-linejoin:miter;stroke-miterlimit:2;stroke-dasharray:none;stroke-opacity:1"
       id="path3851"
       inkscape:connector-curvature="0" /><path
       d="m 284.20248,328.72974 c 0,1.98822 -1.61175,3.6 -3.59997,3.6 -1.98825,0 -3.60001,-1.61178 -3.60001,-3.6 0,-1.98822 1.61176,-3.60001 3.60001,-3.60001 1.98822,0 3.59997,1.61179 3.59997,3.60001"
       style="fill:none;stroke:#000000;stroke-width:1.44000006;stroke-linecap:butt;stroke-linejoin:miter;stroke-miterlimit:2;stroke-dasharray:none;stroke-opacity:1"
       id="path3853"
       inkscape:connector-curvature="0" /><path
       d="m 250.24493,224.88403 c 0,5.96469 -4.83529,10.80002 -10.79998,10.80002 -5.96466,0 -10.79999,-4.83533 -10.79999,-10.80002 0,-5.96466 4.83533,-10.79998 10.79999,-10.79998 5.96469,0 10.79998,4.83532 10.79998,10.79998"
       style="fill:none;stroke:#000000;stroke-width:1.44000006;stroke-linecap:butt;stroke-linejoin:miter;stroke-miterlimit:2;stroke-dasharray:none;stroke-opacity:1"
       id="path3855"
       inkscape:connector-curvature="0" /><path
       d="m 106.24495,224.88403 c 0,5.96469 -4.83533,10.80002 -10.8,10.80002 -5.96468,0 -10.80001,-4.83533 -10.80001,-10.80002 0,-5.96466 4.83533,-10.79998 10.80001,-10.79998 5.96467,0 10.8,4.83532 10.8,10.79998"
       style="fill:none;stroke:#000000;stroke-width:1.44000006;stroke-linecap:butt;stroke-linejoin:miter;stroke-miterlimit:2;stroke-dasharray:none;stroke-opacity:1"
       id="path3857"
       inkscape:connector-curvature="0" /><path
       d="m 489.84036,226.34055 c 0,5.96469 -4.83532,10.80001 -10.80002,10.80001 -5.96466,0 -10.79998,-4.83532 -10.79998,-10.80001 0,-5.96466 4.83532,-10.79999 10.79998,-10.79999 5.9647,0 10.80002,4.83533 10.80002,10.79999"
       style="fill:none;stroke:#000000;stroke-width:1.44000006;stroke-linecap:butt;stroke-linejoin:miter;stroke-miterlimit:2;stroke-dasharray:none;stroke-opacity:1"
       id="path3859"
       inkscape:connector-curvature="0" /><path
       d="m 345.84036,226.34055 c 0,5.96469 -4.83532,10.80001 -10.80002,10.80001 -5.96466,0 -10.79998,-4.83532 -10.79998,-10.80001 0,-5.96466 4.83532,-10.79999 10.79998,-10.79999 5.9647,0 10.80002,4.83533 10.80002,10.79999"
       style="fill:none;stroke:#000000;stroke-width:1.44000006;stroke-linecap:butt;stroke-linejoin:miter;stroke-miterlimit:2;stroke-dasharray:none;stroke-opacity:1"
       id="path3861"
       inkscape:connector-curvature="0" /><path
       d="m 215.1351,127.54681 c 0,1.98822 -1.61178,3.60001 -3.6,3.60001 -1.98823,0 -3.60001,-1.61179 -3.60001,-3.60001 0,-1.98822 1.61178,-3.6 3.60001,-3.6 1.98822,0 3.6,1.61178 3.6,3.6"
       style="fill:none;stroke:#000000;stroke-width:1.44000006;stroke-linecap:butt;stroke-linejoin:miter;stroke-miterlimit:2;stroke-dasharray:none;stroke-opacity:1"
       id="path3863"
       inkscape:connector-curvature="0" /></g></svg>